<svg xmlns="http://www.w3.org/2000/svg" xmlns:xlink="http://www.w3.org/1999/xlink" x="0" y="0" version="1.1" viewBox="0 0 291 147" style="enable-background:new 0 0 291 147" xml:space="preserve"><style type="text/css">@keyframes rowDarken{0%,26%{fill:#fff}30%,90%{fill:#302839}}@keyframes treeLighten{0%,25%{fill:#5a4a79}30%,90%{fill:#fff}}@keyframes clicked{0%,24%{transform:scaleY(1)}25%,86%{transform:translateY(-1px) scaleY(.95)}30%,85%,90%{transform:translateY(0) scaleY(1)}}@keyframes dividerShorten{26%{transform:scaleY(1)}35%,86%{transform:scaleY(.87)}}@keyframes borderLengthen{26%{transform:scaleY(1)}40%,86%{transform:scaleY(1.2)}}.span-orange{fill:#ff7738}.span-purple,.tree{fill:#5a4a79}.border-purple{fill:none;stroke:#3e2c73;stroke-width:.75}.border-orange{fill:none;stroke:#ff7738;stroke-width:1.5}.row{fill:#ede7f5}.row-active{animation:rowDarken 4s infinite ease-in-out}.tree-active{animation:treeLighten 4s infinite ease-in-out}.click{transform-origin:bottom center;animation:clicked 4s infinite ease-in-out}.borders path{animation:borderLengthen 4s infinite ease-in-out}.divider{fill:none;stroke:#3e2c73;stroke-width:.75;animation:dividerShorten 4s infinite ease-in-out}</style><g id="row-inactive"><path d="M81,65h210v8H81V65z" class="row"/><path d="M81,49h210v8H81V49z" class="row"/><path d="M81,33h210v8H81V33z" class="row"/><path d="M81,17h210v8H81V17z" class="row"/><path d="M81,97h210v8H81V97z" class="row"/><path d="M81,81h210v8H81V81z" class="row"/></g><g id="span-inactive"><rect width="8" height="8" x="81" y="9" class="span-purple"/><rect width="16" height="8" x="89" y="17" class="span-purple"/><rect width="33" height="8" x="105" y="25" class="span-orange"/><rect width="18" height="8" x="159" y="49" class="span-orange"/><rect width="7" height="8" x="138" y="33" class="span-purple"/><rect width="14" height="8" x="145" y="41" class="span-purple"/><rect width="3" height="8" x="177" y="57" class="span-purple"/><rect width="30" height="8" x="180" y="65" class="span-purple"/><rect width="2" height="8" x="210" y="73" class="span-purple"/><rect width="2" height="8" x="212" y="81" class="span-purple"/><rect width="8" height="8" x="214" y="89" class="span-purple"/><rect width="5" height="8" x="222" y="97" class="span-purple"/></g><g id="tree-inactive"><path d="M12,12h43c0.6,0,1,0.4,1,1l0,0c0,0.6-0.4,1-1,1H12c-0.6,0-1-0.4-1-1l0,0C11,12.4,11.4,12,12,12z" class="tree"/><path d="M20,28h26c0.6,0,1,0.4,1,1l0,0c0,0.6-0.4,1-1,1H20c-0.6,0-1-0.4-1-1l0,0C19,28.4,19.4,28,20,28z" class="tree"/><path d="M20,36h33c0.6,0,1,0.4,1,1l0,0c0,0.6-0.4,1-1,1H20c-0.6,0-1-0.4-1-1l0,0C19,36.4,19.4,36,20,36z" class="tree"/><path d="M20,44h41c0.6,0,1,0.4,1,1l0,0c0,0.6-0.4,1-1,1H20c-0.6,0-1-0.4-1-1l0,0C19,44.4,19.4,44,20,44z" class="tree"/><path d="M20,52h28c0.6,0,1,0.4,1,1l0,0c0,0.6-0.4,1-1,1H20c-0.6,0-1-0.4-1-1l0,0C19,52.4,19.4,52,20,52z" class="tree"/><path d="M20,60h41c0.6,0,1,0.4,1,1l0,0c0,0.6-0.4,1-1,1H20c-0.6,0-1-0.4-1-1l0,0C19,60.4,19.4,60,20,60z" class="tree"/><path d="M20,20h37c0.6,0,1,0.4,1,1l0,0c0,0.6-0.4,1-1,1H20c-0.6,0-1-0.4-1-1l0,0C19,20.4,19.4,20,20,20z" class="tree"/><path d="M20,68h32c0.6,0,1,0.4,1,1l0,0c0,0.6-0.4,1-1,1H20c-0.6,0-1-0.4-1-1l0,0C19,68.4,19.4,68,20,68z" class="tree"/><path d="M29,76h33c0.6,0,1,0.4,1,1l0,0c0,0.6-0.4,1-1,1H29c-0.6,0-1-0.4-1-1l0,0C28,76.4,28.4,76,29,76z" class="tree"/><path d="M29,84h37c0.6,0,1,0.4,1,1l0,0c0,0.6-0.4,1-1,1H29c-0.6,0-1-0.4-1-1l0,0C28,84.4,28.4,84,29,84z" class="tree"/><path d="M29,92h28c0.6,0,1,0.4,1,1l0,0c0,0.6-0.4,1-1,1H29c-0.6,0-1-0.4-1-1l0,0C28,92.4,28.4,92,29,92z" class="tree"/><path d="M29,100h41c0.6,0,1,0.4,1,1l0,0c0,0.6-0.4,1-1,1H29c-0.6,0-1-0.4-1-1l0,0C28,100.4,28.4,100,29,100z" class="tree"/></g><g id="click" class="click"><rect width="287" height="8" x="3" y="105" class="row row-active"/><path d="M29,108h41c0.6,0,1,0.4,1,1l0,0c0,0.6-0.4,1-1,1H29c-0.6,0-1-0.4-1-1l0,0C28,108.4,28.4,108,29,108z" class="tree tree-active"/><rect width="60" height="8" x="227" y="105" class="span-orange"/></g><line x1="81.4" x2="81.4" y1="3" y2="122" class="divider"/><g id="borders" class="borders"><path d="M289,122L288,1H1.7L1,121.1L289,122z" class="border-orange"/><path d="M3.7,118.9L3,3l283.5,0.2L287,120L3.7,118.9z" class="border-purple"/></g></svg>